<?xml version="1.0" encoding="UTF-8" standalone="no"?>
<!DOCTYPE svg PUBLIC "-//W3C//DTD SVG 1.1//EN"
 "http://www.w3.org/Graphics/SVG/1.1/DTD/svg11.dtd">
<!-- Generated by graphviz version 2.43.0 (0)
 -->
<!-- Title: snakemake_dag Pages: 1 -->
<svg width="234pt" height="464pt"
 viewBox="0.00 0.00 234.00 464.00" xmlns="http://www.w3.org/2000/svg" xmlns:xlink="http://www.w3.org/1999/xlink">
<g id="graph0" class="graph" transform="scale(1 1) rotate(0) translate(4 460)">
<title>snakemake_dag</title>
<polygon fill="white" stroke="transparent" points="-4,4 -4,-460 230,-460 230,4 -4,4"/>
<!-- 0 -->
<g id="node1" class="node">
<title>0</title>
<path fill="none" stroke="#d8a456" stroke-width="2" stroke-dasharray="5,2" d="M138.5,-36C138.5,-36 108.5,-36 108.5,-36 102.5,-36 96.5,-30 96.5,-24 96.5,-24 96.5,-12 96.5,-12 96.5,-6 102.5,0 108.5,0 108.5,0 138.5,0 138.5,0 144.5,0 150.5,-6 150.5,-12 150.5,-12 150.5,-24 150.5,-24 150.5,-30 144.5,-36 138.5,-36"/>
<text text-anchor="middle" x="123.5" y="-15.5" font-family="sans" font-size="10.00">all</text>
</g>
<!-- 1 -->
<g id="node2" class="node">
<title>1</title>
<path fill="none" stroke="#56d8c9" stroke-width="2" stroke-dasharray="5,2" d="M112.5,-108C112.5,-108 14.5,-108 14.5,-108 8.5,-108 2.5,-102 2.5,-96 2.5,-96 2.5,-84 2.5,-84 2.5,-78 8.5,-72 14.5,-72 14.5,-72 112.5,-72 112.5,-72 118.5,-72 124.5,-78 124.5,-84 124.5,-84 124.5,-96 124.5,-96 124.5,-102 118.5,-108 112.5,-108"/>
<text text-anchor="middle" x="63.5" y="-87.5" font-family="sans" font-size="10.00">aggregate_dataframe</text>
</g>
<!-- 1&#45;&gt;0 -->
<g id="edge1" class="edge">
<title>1&#45;&gt;0</title>
<path fill="none" stroke="grey" stroke-width="2" d="M78.33,-71.7C85.52,-63.3 94.3,-53.07 102.19,-43.86"/>
<polygon fill="grey" stroke="grey" stroke-width="2" points="104.99,-45.97 108.84,-36.1 99.67,-41.42 104.99,-45.97"/>
</g>
<!-- 2 -->
<g id="node3" class="node">
<title>2</title>
<path fill="none" stroke="#56d87b" stroke-width="2" stroke-dasharray="5,2" d="M115,-180C115,-180 12,-180 12,-180 6,-180 0,-174 0,-168 0,-168 0,-156 0,-156 0,-150 6,-144 12,-144 12,-144 115,-144 115,-144 121,-144 127,-150 127,-156 127,-156 127,-168 127,-168 127,-174 121,-180 115,-180"/>
<text text-anchor="middle" x="63.5" y="-159.5" font-family="sans" font-size="10.00">measure_performance</text>
</g>
<!-- 2&#45;&gt;1 -->
<g id="edge3" class="edge">
<title>2&#45;&gt;1</title>
<path fill="none" stroke="grey" stroke-width="2" d="M63.5,-143.7C63.5,-135.98 63.5,-126.71 63.5,-118.11"/>
<polygon fill="grey" stroke="grey" stroke-width="2" points="67,-118.1 63.5,-108.1 60,-118.1 67,-118.1"/>
</g>
<!-- 3 -->
<g id="node4" class="node">
<title>3</title>
<path fill="none" stroke="#c6d856" stroke-width="2" stroke-dasharray="5,2" d="M105,-252C105,-252 22,-252 22,-252 16,-252 10,-246 10,-240 10,-240 10,-228 10,-228 10,-222 16,-216 22,-216 22,-216 105,-216 105,-216 111,-216 117,-222 117,-228 117,-228 117,-240 117,-240 117,-246 111,-252 105,-252"/>
<text text-anchor="middle" x="63.5" y="-237" font-family="sans" font-size="10.00">reconstruct_tensor</text>
<text text-anchor="middle" x="63.5" y="-226" font-family="sans" font-size="10.00">metric: inverse</text>
</g>
<!-- 3&#45;&gt;2 -->
<g id="edge4" class="edge">
<title>3&#45;&gt;2</title>
<path fill="none" stroke="grey" stroke-width="2" d="M63.5,-215.7C63.5,-207.98 63.5,-198.71 63.5,-190.11"/>
<polygon fill="grey" stroke="grey" stroke-width="2" points="67,-190.1 63.5,-180.1 60,-190.1 67,-190.1"/>
</g>
<!-- 4 -->
<g id="node5" class="node">
<title>4</title>
<path fill="none" stroke="#78d856" stroke-width="2" stroke-dasharray="5,2" d="M106,-456C106,-456 21,-456 21,-456 15,-456 9,-450 9,-444 9,-444 9,-372 9,-372 9,-366 15,-360 21,-360 21,-360 106,-360 106,-360 112,-360 118,-366 118,-372 118,-372 118,-444 118,-444 118,-450 112,-456 106,-456"/>
<text text-anchor="middle" x="63.5" y="-444" font-family="sans" font-size="10.00">observe_subtensor</text>
<text text-anchor="middle" x="63.5" y="-433" font-family="sans" font-size="10.00">N: 10000</text>
<text text-anchor="middle" x="63.5" y="-422" font-family="sans" font-size="10.00">avgk: 5</text>
<text text-anchor="middle" x="63.5" y="-411" font-family="sans" font-size="10.00">gamma: 2.1</text>
<text text-anchor="middle" x="63.5" y="-400" font-family="sans" font-size="10.00">mu: 0.1</text>
<text text-anchor="middle" x="63.5" y="-389" font-family="sans" font-size="10.00">pfi: 0.1</text>
<text text-anchor="middle" x="63.5" y="-378" font-family="sans" font-size="10.00">rep: 0</text>
<text text-anchor="middle" x="63.5" y="-367" font-family="sans" font-size="10.00">tau: 1.0</text>
</g>
<!-- 4&#45;&gt;3 -->
<g id="edge5" class="edge">
<title>4&#45;&gt;3</title>
<path fill="none" stroke="grey" stroke-width="2" d="M54.91,-359.78C52.02,-337.93 50.07,-311.63 52.5,-288 53.38,-279.46 55.03,-270.26 56.79,-261.96"/>
<polygon fill="grey" stroke="grey" stroke-width="2" points="60.24,-262.57 59.04,-252.05 53.42,-261.03 60.24,-262.57"/>
</g>
<!-- 5 -->
<g id="node6" class="node">
<title>5</title>
<path fill="none" stroke="#d85656" stroke-width="2" stroke-dasharray="5,2" d="M113.5,-324C113.5,-324 73.5,-324 73.5,-324 67.5,-324 61.5,-318 61.5,-312 61.5,-312 61.5,-300 61.5,-300 61.5,-294 67.5,-288 73.5,-288 73.5,-288 113.5,-288 113.5,-288 119.5,-288 125.5,-294 125.5,-300 125.5,-300 125.5,-312 125.5,-312 125.5,-318 119.5,-324 113.5,-324"/>
<text text-anchor="middle" x="93.5" y="-303.5" font-family="sans" font-size="10.00">node2vec</text>
</g>
<!-- 4&#45;&gt;5 -->
<g id="edge7" class="edge">
<title>4&#45;&gt;5</title>
<path fill="none" stroke="grey" stroke-width="2" d="M77.62,-359.93C80.28,-351.05 82.98,-342.05 85.38,-334.05"/>
<polygon fill="grey" stroke="grey" stroke-width="2" points="88.82,-334.79 88.34,-324.21 82.11,-332.78 88.82,-334.79"/>
</g>
<!-- 5&#45;&gt;3 -->
<g id="edge6" class="edge">
<title>5&#45;&gt;3</title>
<path fill="none" stroke="grey" stroke-width="2" d="M86.08,-287.7C82.71,-279.81 78.63,-270.3 74.88,-261.55"/>
<polygon fill="grey" stroke="grey" stroke-width="2" points="77.99,-259.92 70.83,-252.1 71.55,-262.67 77.99,-259.92"/>
</g>
<!-- 6 -->
<g id="node7" class="node">
<title>6</title>
<path fill="none" stroke="#56a2d8" stroke-width="2" stroke-dasharray="5,2" d="M214,-108C214,-108 155,-108 155,-108 149,-108 143,-102 143,-96 143,-96 143,-84 143,-84 143,-78 149,-72 155,-72 155,-72 214,-72 214,-72 220,-72 226,-78 226,-84 226,-84 226,-96 226,-96 226,-102 220,-108 214,-108"/>
<text text-anchor="middle" x="184.5" y="-87.5" font-family="sans" font-size="10.00">generate_dag</text>
</g>
<!-- 6&#45;&gt;0 -->
<g id="edge2" class="edge">
<title>6&#45;&gt;0</title>
<path fill="none" stroke="grey" stroke-width="2" d="M169.42,-71.7C162.11,-63.3 153.19,-53.07 145.16,-43.86"/>
<polygon fill="grey" stroke="grey" stroke-width="2" points="147.61,-41.34 138.41,-36.1 142.34,-45.94 147.61,-41.34"/>
</g>
</g>
</svg>
