<?xml version="1.0" encoding="UTF-8" standalone="no"?>
<!DOCTYPE svg PUBLIC "-//W3C//DTD SVG 1.1//EN"
 "http://www.w3.org/Graphics/SVG/1.1/DTD/svg11.dtd">
<!-- Generated by graphviz version 2.43.0 (0)
 -->
<!-- Title: snakemake_dag Pages: 1 -->
<svg width="232pt" height="476pt"
 viewBox="0.00 0.00 232.00 476.00" xmlns="http://www.w3.org/2000/svg" xmlns:xlink="http://www.w3.org/1999/xlink">
<g id="graph0" class="graph" transform="scale(1 1) rotate(0) translate(4 472)">
<title>snakemake_dag</title>
<polygon fill="white" stroke="transparent" points="-4,4 -4,-472 228,-472 228,4 -4,4"/>
<!-- 0 -->
<g id="node1" class="node">
<title>0</title>
<path fill="none" stroke="#56c1d8" stroke-width="2" d="M148.5,-36C148.5,-36 118.5,-36 118.5,-36 112.5,-36 106.5,-30 106.5,-24 106.5,-24 106.5,-12 106.5,-12 106.5,-6 112.5,0 118.5,0 118.5,0 148.5,0 148.5,0 154.5,0 160.5,-6 160.5,-12 160.5,-12 160.5,-24 160.5,-24 160.5,-30 154.5,-36 148.5,-36"/>
<text text-anchor="middle" x="133.5" y="-15.5" font-family="sans" font-size="10.00">all</text>
</g>
<!-- 1 -->
<g id="node2" class="node">
<title>1</title>
<path fill="none" stroke="#56d8c1" stroke-width="2" d="M129,-108C129,-108 22,-108 22,-108 16,-108 10,-102 10,-96 10,-96 10,-84 10,-84 10,-78 16,-72 22,-72 22,-72 129,-72 129,-72 135,-72 141,-78 141,-84 141,-84 141,-96 141,-96 141,-102 135,-108 129,-108"/>
<text text-anchor="middle" x="75.5" y="-87.5" font-family="sans" font-size="10.00">aggregate_records_real</text>
</g>
<!-- 1&#45;&gt;0 -->
<g id="edge1" class="edge">
<title>1&#45;&gt;0</title>
<path fill="none" stroke="grey" stroke-width="2" d="M89.84,-71.7C96.79,-63.3 105.27,-53.07 112.9,-43.86"/>
<polygon fill="grey" stroke="grey" stroke-width="2" points="115.64,-46.04 119.33,-36.1 110.25,-41.57 115.64,-46.04"/>
</g>
<!-- 2 -->
<g id="node3" class="node">
<title>2</title>
<path fill="none" stroke="#bed856" stroke-width="2" d="M139,-180C139,-180 12,-180 12,-180 6,-180 0,-174 0,-168 0,-168 0,-156 0,-156 0,-150 6,-144 12,-144 12,-144 139,-144 139,-144 145,-144 151,-150 151,-156 151,-156 151,-168 151,-168 151,-174 145,-180 139,-180"/>
<text text-anchor="middle" x="75.5" y="-159.5" font-family="sans" font-size="10.00">measure_performance_real</text>
</g>
<!-- 2&#45;&gt;1 -->
<g id="edge3" class="edge">
<title>2&#45;&gt;1</title>
<path fill="none" stroke="grey" stroke-width="2" d="M75.5,-143.7C75.5,-135.98 75.5,-126.71 75.5,-118.11"/>
<polygon fill="grey" stroke="grey" stroke-width="2" points="79,-118.1 75.5,-108.1 72,-118.1 79,-118.1"/>
</g>
<!-- 3 -->
<g id="node4" class="node">
<title>3</title>
<path fill="none" stroke="#56d88a" stroke-width="2" d="M117,-252C117,-252 34,-252 34,-252 28,-252 22,-246 22,-240 22,-240 22,-228 22,-228 22,-222 28,-216 34,-216 34,-216 117,-216 117,-216 123,-216 129,-222 129,-228 129,-228 129,-240 129,-240 129,-246 123,-252 117,-252"/>
<text text-anchor="middle" x="75.5" y="-231.5" font-family="sans" font-size="10.00">reconstruct_tensor</text>
</g>
<!-- 3&#45;&gt;2 -->
<g id="edge4" class="edge">
<title>3&#45;&gt;2</title>
<path fill="none" stroke="grey" stroke-width="2" d="M75.5,-215.7C75.5,-207.98 75.5,-198.71 75.5,-190.11"/>
<polygon fill="grey" stroke="grey" stroke-width="2" points="79,-190.1 75.5,-180.1 72,-190.1 79,-190.1"/>
</g>
<!-- 4 -->
<g id="node5" class="node">
<title>4</title>
<path fill="none" stroke="#59d856" stroke-width="2" d="M163,-324C163,-324 74,-324 74,-324 68,-324 62,-318 62,-312 62,-312 62,-300 62,-300 62,-294 68,-288 74,-288 74,-288 163,-288 163,-288 169,-288 175,-294 175,-300 175,-300 175,-312 175,-312 175,-318 169,-324 163,-324"/>
<text text-anchor="middle" x="118.5" y="-303.5" font-family="sans" font-size="10.00">calculate_distances</text>
</g>
<!-- 4&#45;&gt;3 -->
<g id="edge6" class="edge">
<title>4&#45;&gt;3</title>
<path fill="none" stroke="grey" stroke-width="2" d="M107.87,-287.7C102.87,-279.56 96.81,-269.69 91.29,-260.7"/>
<polygon fill="grey" stroke="grey" stroke-width="2" points="94.22,-258.79 86.01,-252.1 88.26,-262.46 94.22,-258.79"/>
</g>
<!-- 5 -->
<g id="node6" class="node">
<title>5</title>
<path fill="none" stroke="#d88d56" stroke-width="2" d="M185,-396C185,-396 112,-396 112,-396 106,-396 100,-390 100,-384 100,-384 100,-372 100,-372 100,-366 106,-360 112,-360 112,-360 185,-360 185,-360 191,-360 197,-366 197,-372 197,-372 197,-384 197,-384 197,-390 191,-396 185,-396"/>
<text text-anchor="middle" x="148.5" y="-375.5" font-family="sans" font-size="10.00">embed_remnant</text>
</g>
<!-- 5&#45;&gt;4 -->
<g id="edge8" class="edge">
<title>5&#45;&gt;4</title>
<path fill="none" stroke="grey" stroke-width="2" d="M141.08,-359.7C137.71,-351.81 133.63,-342.3 129.88,-333.55"/>
<polygon fill="grey" stroke="grey" stroke-width="2" points="132.99,-331.92 125.83,-324.1 126.55,-334.67 132.99,-331.92"/>
</g>
<!-- 6 -->
<g id="node7" class="node">
<title>6</title>
<path fill="none" stroke="#88d856" stroke-width="2" d="M126,-468C126,-468 17,-468 17,-468 11,-468 5,-462 5,-456 5,-456 5,-444 5,-444 5,-438 11,-432 17,-432 17,-432 126,-432 126,-432 132,-432 138,-438 138,-444 138,-444 138,-456 138,-456 138,-462 132,-468 126,-468"/>
<text text-anchor="middle" x="71.5" y="-447.5" font-family="sans" font-size="10.00">observe_subtensor_real</text>
</g>
<!-- 6&#45;&gt;3 -->
<g id="edge5" class="edge">
<title>6&#45;&gt;3</title>
<path fill="none" stroke="grey" stroke-width="2" d="M65.91,-431.92C57.03,-402.35 41.74,-339.81 52.5,-288 54.38,-278.96 57.87,-269.58 61.59,-261.26"/>
<polygon fill="grey" stroke="grey" stroke-width="2" points="64.82,-262.61 65.96,-252.07 58.5,-259.6 64.82,-262.61"/>
</g>
<!-- 6&#45;&gt;4 -->
<g id="edge7" class="edge">
<title>6&#45;&gt;4</title>
<path fill="none" stroke="grey" stroke-width="2" d="M73.72,-431.88C76.41,-413.67 81.71,-384.21 90.5,-360 93.8,-350.9 98.4,-341.42 102.92,-333.03"/>
<polygon fill="grey" stroke="grey" stroke-width="2" points="106.08,-334.55 107.91,-324.11 99.97,-331.13 106.08,-334.55"/>
</g>
<!-- 6&#45;&gt;5 -->
<g id="edge9" class="edge">
<title>6&#45;&gt;5</title>
<path fill="none" stroke="grey" stroke-width="2" d="M90.53,-431.7C100.04,-423.05 111.71,-412.45 122.07,-403.03"/>
<polygon fill="grey" stroke="grey" stroke-width="2" points="124.64,-405.42 129.69,-396.1 119.93,-400.24 124.64,-405.42"/>
</g>
<!-- 7 -->
<g id="node8" class="node">
<title>7</title>
<path fill="none" stroke="#d8bc56" stroke-width="2" d="M212,-108C212,-108 171,-108 171,-108 165,-108 159,-102 159,-96 159,-96 159,-84 159,-84 159,-78 165,-72 171,-72 171,-72 212,-72 212,-72 218,-72 224,-78 224,-84 224,-84 224,-96 224,-96 224,-102 218,-108 212,-108"/>
<text text-anchor="middle" x="191.5" y="-87.5" font-family="sans" font-size="10.00">meta_dag</text>
</g>
<!-- 7&#45;&gt;0 -->
<g id="edge2" class="edge">
<title>7&#45;&gt;0</title>
<path fill="none" stroke="grey" stroke-width="2" d="M177.16,-71.7C170.21,-63.3 161.73,-53.07 154.1,-43.86"/>
<polygon fill="grey" stroke="grey" stroke-width="2" points="156.75,-41.57 147.67,-36.1 151.36,-46.04 156.75,-41.57"/>
</g>
</g>
</svg>
