<?xml version="1.0" encoding="UTF-8" standalone="no"?>
<!DOCTYPE svg PUBLIC "-//W3C//DTD SVG 1.1//EN"
 "http://www.w3.org/Graphics/SVG/1.1/DTD/svg11.dtd">
<!-- Generated by graphviz version 2.43.0 (0)
 -->
<!-- Title: snakemake_dag Pages: 1 -->
<svg width="232pt" height="404pt"
 viewBox="0.00 0.00 232.00 404.00" xmlns="http://www.w3.org/2000/svg" xmlns:xlink="http://www.w3.org/1999/xlink">
<g id="graph0" class="graph" transform="scale(1 1) rotate(0) translate(4 400)">
<title>snakemake_dag</title>
<polygon fill="white" stroke="transparent" points="-4,4 -4,-400 228,-400 228,4 -4,4"/>
<!-- 0 -->
<g id="node1" class="node">
<title>0</title>
<path fill="none" stroke="#d85656" stroke-width="2" d="M148.5,-36C148.5,-36 118.5,-36 118.5,-36 112.5,-36 106.5,-30 106.5,-24 106.5,-24 106.5,-12 106.5,-12 106.5,-6 112.5,0 118.5,0 118.5,0 148.5,0 148.5,0 154.5,0 160.5,-6 160.5,-12 160.5,-12 160.5,-24 160.5,-24 160.5,-30 154.5,-36 148.5,-36"/>
<text text-anchor="middle" x="133.5" y="-15.5" font-family="sans" font-size="10.00">all</text>
</g>
<!-- 1 -->
<g id="node2" class="node">
<title>1</title>
<path fill="none" stroke="#56d8c1" stroke-width="2" d="M129,-108C129,-108 22,-108 22,-108 16,-108 10,-102 10,-96 10,-96 10,-84 10,-84 10,-78 16,-72 22,-72 22,-72 129,-72 129,-72 135,-72 141,-78 141,-84 141,-84 141,-96 141,-96 141,-102 135,-108 129,-108"/>
<text text-anchor="middle" x="75.5" y="-87.5" font-family="sans" font-size="10.00">aggregate_records_real</text>
</g>
<!-- 1&#45;&gt;0 -->
<g id="edge1" class="edge">
<title>1&#45;&gt;0</title>
<path fill="none" stroke="grey" stroke-width="2" d="M89.84,-71.7C96.79,-63.3 105.27,-53.07 112.9,-43.86"/>
<polygon fill="grey" stroke="grey" stroke-width="2" points="115.64,-46.04 119.33,-36.1 110.25,-41.57 115.64,-46.04"/>
</g>
<!-- 2 -->
<g id="node3" class="node">
<title>2</title>
<path fill="none" stroke="#d8bc56" stroke-width="2" d="M139,-180C139,-180 12,-180 12,-180 6,-180 0,-174 0,-168 0,-168 0,-156 0,-156 0,-150 6,-144 12,-144 12,-144 139,-144 139,-144 145,-144 151,-150 151,-156 151,-156 151,-168 151,-168 151,-174 145,-180 139,-180"/>
<text text-anchor="middle" x="75.5" y="-159.5" font-family="sans" font-size="10.00">measure_performance_real</text>
</g>
<!-- 2&#45;&gt;1 -->
<g id="edge3" class="edge">
<title>2&#45;&gt;1</title>
<path fill="none" stroke="grey" stroke-width="2" d="M75.5,-143.7C75.5,-135.98 75.5,-126.71 75.5,-118.11"/>
<polygon fill="grey" stroke="grey" stroke-width="2" points="79,-118.1 75.5,-108.1 72,-118.1 79,-118.1"/>
</g>
<!-- 3 -->
<g id="node4" class="node">
<title>3</title>
<path fill="none" stroke="#bed856" stroke-width="2" d="M117,-252C117,-252 34,-252 34,-252 28,-252 22,-246 22,-240 22,-240 22,-228 22,-228 22,-222 28,-216 34,-216 34,-216 117,-216 117,-216 123,-216 129,-222 129,-228 129,-228 129,-240 129,-240 129,-246 123,-252 117,-252"/>
<text text-anchor="middle" x="75.5" y="-231.5" font-family="sans" font-size="10.00">reconstruct_tensor</text>
</g>
<!-- 3&#45;&gt;2 -->
<g id="edge4" class="edge">
<title>3&#45;&gt;2</title>
<path fill="none" stroke="grey" stroke-width="2" d="M75.5,-215.7C75.5,-207.98 75.5,-198.71 75.5,-190.11"/>
<polygon fill="grey" stroke="grey" stroke-width="2" points="79,-190.1 75.5,-180.1 72,-190.1 79,-190.1"/>
</g>
<!-- 4 -->
<g id="node5" class="node">
<title>4</title>
<path fill="none" stroke="#88d856" stroke-width="2" d="M120,-324C120,-324 31,-324 31,-324 25,-324 19,-318 19,-312 19,-312 19,-300 19,-300 19,-294 25,-288 31,-288 31,-288 120,-288 120,-288 126,-288 132,-294 132,-300 132,-300 132,-312 132,-312 132,-318 126,-324 120,-324"/>
<text text-anchor="middle" x="75.5" y="-303.5" font-family="sans" font-size="10.00">calculate_distances</text>
</g>
<!-- 4&#45;&gt;3 -->
<g id="edge5" class="edge">
<title>4&#45;&gt;3</title>
<path fill="none" stroke="grey" stroke-width="2" d="M75.5,-287.7C75.5,-279.98 75.5,-270.71 75.5,-262.11"/>
<polygon fill="grey" stroke="grey" stroke-width="2" points="79,-262.1 75.5,-252.1 72,-262.1 79,-262.1"/>
</g>
<!-- 5 -->
<g id="node6" class="node">
<title>5</title>
<path fill="none" stroke="#56c1d8" stroke-width="2" d="M112,-396C112,-396 39,-396 39,-396 33,-396 27,-390 27,-384 27,-384 27,-372 27,-372 27,-366 33,-360 39,-360 39,-360 112,-360 112,-360 118,-360 124,-366 124,-372 124,-372 124,-384 124,-384 124,-390 118,-396 112,-396"/>
<text text-anchor="middle" x="75.5" y="-375.5" font-family="sans" font-size="10.00">embed_remnant</text>
</g>
<!-- 5&#45;&gt;4 -->
<g id="edge6" class="edge">
<title>5&#45;&gt;4</title>
<path fill="none" stroke="grey" stroke-width="2" d="M75.5,-359.7C75.5,-351.98 75.5,-342.71 75.5,-334.11"/>
<polygon fill="grey" stroke="grey" stroke-width="2" points="79,-334.1 75.5,-324.1 72,-334.1 79,-334.1"/>
</g>
<!-- 6 -->
<g id="node7" class="node">
<title>6</title>
<path fill="none" stroke="#568ad8" stroke-width="2" d="M212,-108C212,-108 171,-108 171,-108 165,-108 159,-102 159,-96 159,-96 159,-84 159,-84 159,-78 165,-72 171,-72 171,-72 212,-72 212,-72 218,-72 224,-78 224,-84 224,-84 224,-96 224,-96 224,-102 218,-108 212,-108"/>
<text text-anchor="middle" x="191.5" y="-87.5" font-family="sans" font-size="10.00">meta_dag</text>
</g>
<!-- 6&#45;&gt;0 -->
<g id="edge2" class="edge">
<title>6&#45;&gt;0</title>
<path fill="none" stroke="grey" stroke-width="2" d="M177.16,-71.7C170.21,-63.3 161.73,-53.07 154.1,-43.86"/>
<polygon fill="grey" stroke="grey" stroke-width="2" points="156.75,-41.57 147.67,-36.1 151.36,-46.04 156.75,-41.57"/>
</g>
</g>
</svg>
