<?xml version="1.0" encoding="UTF-8" standalone="no"?>
<!DOCTYPE svg PUBLIC "-//W3C//DTD SVG 1.1//EN"
 "http://www.w3.org/Graphics/SVG/1.1/DTD/svg11.dtd">
<!-- Generated by graphviz version 2.43.0 (0)
 -->
<!-- Title: snakemake_dag Pages: 1 -->
<svg width="227pt" height="476pt"
 viewBox="0.00 0.00 227.00 476.00" xmlns="http://www.w3.org/2000/svg" xmlns:xlink="http://www.w3.org/1999/xlink">
<g id="graph0" class="graph" transform="scale(1 1) rotate(0) translate(4 472)">
<title>snakemake_dag</title>
<polygon fill="white" stroke="transparent" points="-4,4 -4,-472 223,-472 223,4 -4,4"/>
<!-- 0 -->
<g id="node1" class="node">
<title>0</title>
<path fill="none" stroke="#59d856" stroke-width="2" d="M143.5,-36C143.5,-36 113.5,-36 113.5,-36 107.5,-36 101.5,-30 101.5,-24 101.5,-24 101.5,-12 101.5,-12 101.5,-6 107.5,0 113.5,0 113.5,0 143.5,0 143.5,0 149.5,0 155.5,-6 155.5,-12 155.5,-12 155.5,-24 155.5,-24 155.5,-30 149.5,-36 143.5,-36"/>
<text text-anchor="middle" x="128.5" y="-15.5" font-family="sans" font-size="10.00">all</text>
</g>
<!-- 1 -->
<g id="node2" class="node">
<title>1</title>
<path fill="none" stroke="#d88d56" stroke-width="2" d="M124,-108C124,-108 17,-108 17,-108 11,-108 5,-102 5,-96 5,-96 5,-84 5,-84 5,-78 11,-72 17,-72 17,-72 124,-72 124,-72 130,-72 136,-78 136,-84 136,-84 136,-96 136,-96 136,-102 130,-108 124,-108"/>
<text text-anchor="middle" x="70.5" y="-87.5" font-family="sans" font-size="10.00">aggregate_records_real</text>
</g>
<!-- 1&#45;&gt;0 -->
<g id="edge1" class="edge">
<title>1&#45;&gt;0</title>
<path fill="none" stroke="grey" stroke-width="2" d="M84.84,-71.7C91.79,-63.3 100.27,-53.07 107.9,-43.86"/>
<polygon fill="grey" stroke="grey" stroke-width="2" points="110.64,-46.04 114.33,-36.1 105.25,-41.57 110.64,-46.04"/>
</g>
<!-- 2 -->
<g id="node3" class="node">
<title>2</title>
<path fill="none" stroke="#56d88a" stroke-width="2" d="M122,-180C122,-180 19,-180 19,-180 13,-180 7,-174 7,-168 7,-168 7,-156 7,-156 7,-150 13,-144 19,-144 19,-144 122,-144 122,-144 128,-144 134,-150 134,-156 134,-156 134,-168 134,-168 134,-174 128,-180 122,-180"/>
<text text-anchor="middle" x="70.5" y="-159.5" font-family="sans" font-size="10.00">measure_performance</text>
</g>
<!-- 2&#45;&gt;1 -->
<g id="edge3" class="edge">
<title>2&#45;&gt;1</title>
<path fill="none" stroke="grey" stroke-width="2" d="M70.5,-143.7C70.5,-135.98 70.5,-126.71 70.5,-118.11"/>
<polygon fill="grey" stroke="grey" stroke-width="2" points="74,-118.1 70.5,-108.1 67,-118.1 74,-118.1"/>
</g>
<!-- 3 -->
<g id="node4" class="node">
<title>3</title>
<path fill="none" stroke="#56c1d8" stroke-width="2" d="M112,-252C112,-252 29,-252 29,-252 23,-252 17,-246 17,-240 17,-240 17,-228 17,-228 17,-222 23,-216 29,-216 29,-216 112,-216 112,-216 118,-216 124,-222 124,-228 124,-228 124,-240 124,-240 124,-246 118,-252 112,-252"/>
<text text-anchor="middle" x="70.5" y="-231.5" font-family="sans" font-size="10.00">reconstruct_tensor</text>
</g>
<!-- 3&#45;&gt;2 -->
<g id="edge4" class="edge">
<title>3&#45;&gt;2</title>
<path fill="none" stroke="grey" stroke-width="2" d="M70.5,-215.7C70.5,-207.98 70.5,-198.71 70.5,-190.11"/>
<polygon fill="grey" stroke="grey" stroke-width="2" points="74,-190.1 70.5,-180.1 67,-190.1 74,-190.1"/>
</g>
<!-- 4 -->
<g id="node5" class="node">
<title>4</title>
<path fill="none" stroke="#d85656" stroke-width="2" d="M158,-324C158,-324 69,-324 69,-324 63,-324 57,-318 57,-312 57,-312 57,-300 57,-300 57,-294 63,-288 69,-288 69,-288 158,-288 158,-288 164,-288 170,-294 170,-300 170,-300 170,-312 170,-312 170,-318 164,-324 158,-324"/>
<text text-anchor="middle" x="113.5" y="-303.5" font-family="sans" font-size="10.00">calculate_distances</text>
</g>
<!-- 4&#45;&gt;3 -->
<g id="edge5" class="edge">
<title>4&#45;&gt;3</title>
<path fill="none" stroke="grey" stroke-width="2" d="M102.87,-287.7C97.87,-279.56 91.81,-269.69 86.29,-260.7"/>
<polygon fill="grey" stroke="grey" stroke-width="2" points="89.22,-258.79 81.01,-252.1 83.26,-262.46 89.22,-258.79"/>
</g>
<!-- 5 -->
<g id="node6" class="node">
<title>5</title>
<path fill="none" stroke="#88d856" stroke-width="2" d="M180,-396C180,-396 107,-396 107,-396 101,-396 95,-390 95,-384 95,-384 95,-372 95,-372 95,-366 101,-360 107,-360 107,-360 180,-360 180,-360 186,-360 192,-366 192,-372 192,-372 192,-384 192,-384 192,-390 186,-396 180,-396"/>
<text text-anchor="middle" x="143.5" y="-375.5" font-family="sans" font-size="10.00">embed_remnant</text>
</g>
<!-- 5&#45;&gt;4 -->
<g id="edge7" class="edge">
<title>5&#45;&gt;4</title>
<path fill="none" stroke="grey" stroke-width="2" d="M136.08,-359.7C132.71,-351.81 128.63,-342.3 124.88,-333.55"/>
<polygon fill="grey" stroke="grey" stroke-width="2" points="127.99,-331.92 120.83,-324.1 121.55,-334.67 127.99,-331.92"/>
</g>
<!-- 6 -->
<g id="node7" class="node">
<title>6</title>
<path fill="none" stroke="#56d8c1" stroke-width="2" d="M121,-468C121,-468 12,-468 12,-468 6,-468 0,-462 0,-456 0,-456 0,-444 0,-444 0,-438 6,-432 12,-432 12,-432 121,-432 121,-432 127,-432 133,-438 133,-444 133,-444 133,-456 133,-456 133,-462 127,-468 121,-468"/>
<text text-anchor="middle" x="66.5" y="-447.5" font-family="sans" font-size="10.00">observe_subtensor_real</text>
</g>
<!-- 6&#45;&gt;3 -->
<g id="edge6" class="edge">
<title>6&#45;&gt;3</title>
<path fill="none" stroke="grey" stroke-width="2" d="M60.91,-431.92C52.03,-402.35 36.74,-339.81 47.5,-288 49.38,-278.96 52.87,-269.58 56.59,-261.26"/>
<polygon fill="grey" stroke="grey" stroke-width="2" points="59.82,-262.61 60.96,-252.07 53.5,-259.6 59.82,-262.61"/>
</g>
<!-- 6&#45;&gt;4 -->
<g id="edge8" class="edge">
<title>6&#45;&gt;4</title>
<path fill="none" stroke="grey" stroke-width="2" d="M68.72,-431.88C71.41,-413.67 76.71,-384.21 85.5,-360 88.8,-350.9 93.4,-341.42 97.92,-333.03"/>
<polygon fill="grey" stroke="grey" stroke-width="2" points="101.08,-334.55 102.91,-324.11 94.97,-331.13 101.08,-334.55"/>
</g>
<!-- 6&#45;&gt;5 -->
<g id="edge9" class="edge">
<title>6&#45;&gt;5</title>
<path fill="none" stroke="grey" stroke-width="2" d="M85.53,-431.7C95.04,-423.05 106.71,-412.45 117.07,-403.03"/>
<polygon fill="grey" stroke="grey" stroke-width="2" points="119.64,-405.42 124.69,-396.1 114.93,-400.24 119.64,-405.42"/>
</g>
<!-- 7 -->
<g id="node8" class="node">
<title>7</title>
<path fill="none" stroke="#d8bc56" stroke-width="2" d="M207,-108C207,-108 166,-108 166,-108 160,-108 154,-102 154,-96 154,-96 154,-84 154,-84 154,-78 160,-72 166,-72 166,-72 207,-72 207,-72 213,-72 219,-78 219,-84 219,-84 219,-96 219,-96 219,-102 213,-108 207,-108"/>
<text text-anchor="middle" x="186.5" y="-87.5" font-family="sans" font-size="10.00">meta_dag</text>
</g>
<!-- 7&#45;&gt;0 -->
<g id="edge2" class="edge">
<title>7&#45;&gt;0</title>
<path fill="none" stroke="grey" stroke-width="2" d="M172.16,-71.7C165.21,-63.3 156.73,-53.07 149.1,-43.86"/>
<polygon fill="grey" stroke="grey" stroke-width="2" points="151.75,-41.57 142.67,-36.1 146.36,-46.04 151.75,-41.57"/>
</g>
</g>
</svg>
