<?xml version="1.0" encoding="UTF-8" standalone="no"?>
<!DOCTYPE svg PUBLIC "-//W3C//DTD SVG 1.1//EN"
 "http://www.w3.org/Graphics/SVG/1.1/DTD/svg11.dtd">
<!-- Generated by graphviz version 2.43.0 (0)
 -->
<!-- Title: snakemake_dag Pages: 1 -->
<svg width="208pt" height="476pt"
 viewBox="0.00 0.00 208.00 476.00" xmlns="http://www.w3.org/2000/svg" xmlns:xlink="http://www.w3.org/1999/xlink">
<g id="graph0" class="graph" transform="scale(1 1) rotate(0) translate(4 472)">
<title>snakemake_dag</title>
<polygon fill="white" stroke="transparent" points="-4,4 -4,-472 204,-472 204,4 -4,4"/>
<!-- 0 -->
<g id="node1" class="node">
<title>0</title>
<path fill="none" stroke="#59d856" stroke-width="2" d="M130.5,-36C130.5,-36 100.5,-36 100.5,-36 94.5,-36 88.5,-30 88.5,-24 88.5,-24 88.5,-12 88.5,-12 88.5,-6 94.5,0 100.5,0 100.5,0 130.5,0 130.5,0 136.5,0 142.5,-6 142.5,-12 142.5,-12 142.5,-24 142.5,-24 142.5,-30 136.5,-36 130.5,-36"/>
<text text-anchor="middle" x="115.5" y="-15.5" font-family="sans" font-size="10.00">all</text>
</g>
<!-- 1 -->
<g id="node2" class="node">
<title>1</title>
<path fill="none" stroke="#568ad8" stroke-width="2" d="M105,-108C105,-108 22,-108 22,-108 16,-108 10,-102 10,-96 10,-96 10,-84 10,-84 10,-78 16,-72 22,-72 22,-72 105,-72 105,-72 111,-72 117,-78 117,-84 117,-84 117,-96 117,-96 117,-102 111,-108 105,-108"/>
<text text-anchor="middle" x="63.5" y="-87.5" font-family="sans" font-size="10.00">aggregate_records</text>
</g>
<!-- 1&#45;&gt;0 -->
<g id="edge1" class="edge">
<title>1&#45;&gt;0</title>
<path fill="none" stroke="grey" stroke-width="2" d="M76.35,-71.7C82.53,-63.39 90.04,-53.28 96.82,-44.14"/>
<polygon fill="grey" stroke="grey" stroke-width="2" points="99.64,-46.22 102.79,-36.1 94.02,-42.04 99.64,-46.22"/>
</g>
<!-- 2 -->
<g id="node3" class="node">
<title>2</title>
<path fill="none" stroke="#d85656" stroke-width="2" d="M115,-180C115,-180 12,-180 12,-180 6,-180 0,-174 0,-168 0,-168 0,-156 0,-156 0,-150 6,-144 12,-144 12,-144 115,-144 115,-144 121,-144 127,-150 127,-156 127,-156 127,-168 127,-168 127,-174 121,-180 115,-180"/>
<text text-anchor="middle" x="63.5" y="-159.5" font-family="sans" font-size="10.00">measure_performance</text>
</g>
<!-- 2&#45;&gt;1 -->
<g id="edge3" class="edge">
<title>2&#45;&gt;1</title>
<path fill="none" stroke="grey" stroke-width="2" d="M63.5,-143.7C63.5,-135.98 63.5,-126.71 63.5,-118.11"/>
<polygon fill="grey" stroke="grey" stroke-width="2" points="67,-118.1 63.5,-108.1 60,-118.1 67,-118.1"/>
</g>
<!-- 3 -->
<g id="node4" class="node">
<title>3</title>
<path fill="none" stroke="#d8bc56" stroke-width="2" d="M105,-252C105,-252 22,-252 22,-252 16,-252 10,-246 10,-240 10,-240 10,-228 10,-228 10,-222 16,-216 22,-216 22,-216 105,-216 105,-216 111,-216 117,-222 117,-228 117,-228 117,-240 117,-240 117,-246 111,-252 105,-252"/>
<text text-anchor="middle" x="63.5" y="-231.5" font-family="sans" font-size="10.00">reconstruct_tensor</text>
</g>
<!-- 3&#45;&gt;2 -->
<g id="edge4" class="edge">
<title>3&#45;&gt;2</title>
<path fill="none" stroke="grey" stroke-width="2" d="M63.5,-215.7C63.5,-207.98 63.5,-198.71 63.5,-190.11"/>
<polygon fill="grey" stroke="grey" stroke-width="2" points="67,-190.1 63.5,-180.1 60,-190.1 67,-190.1"/>
</g>
<!-- 4 -->
<g id="node5" class="node">
<title>4</title>
<path fill="none" stroke="#56d88a" stroke-width="2" d="M151,-324C151,-324 62,-324 62,-324 56,-324 50,-318 50,-312 50,-312 50,-300 50,-300 50,-294 56,-288 62,-288 62,-288 151,-288 151,-288 157,-288 163,-294 163,-300 163,-300 163,-312 163,-312 163,-318 157,-324 151,-324"/>
<text text-anchor="middle" x="106.5" y="-303.5" font-family="sans" font-size="10.00">calculate_distances</text>
</g>
<!-- 4&#45;&gt;3 -->
<g id="edge6" class="edge">
<title>4&#45;&gt;3</title>
<path fill="none" stroke="grey" stroke-width="2" d="M95.87,-287.7C90.87,-279.56 84.81,-269.69 79.29,-260.7"/>
<polygon fill="grey" stroke="grey" stroke-width="2" points="82.22,-258.79 74.01,-252.1 76.26,-262.46 82.22,-258.79"/>
</g>
<!-- 5 -->
<g id="node6" class="node">
<title>5</title>
<path fill="none" stroke="#bed856" stroke-width="2" d="M173,-396C173,-396 100,-396 100,-396 94,-396 88,-390 88,-384 88,-384 88,-372 88,-372 88,-366 94,-360 100,-360 100,-360 173,-360 173,-360 179,-360 185,-366 185,-372 185,-372 185,-384 185,-384 185,-390 179,-396 173,-396"/>
<text text-anchor="middle" x="136.5" y="-375.5" font-family="sans" font-size="10.00">embed_remnant</text>
</g>
<!-- 5&#45;&gt;4 -->
<g id="edge8" class="edge">
<title>5&#45;&gt;4</title>
<path fill="none" stroke="grey" stroke-width="2" d="M129.08,-359.7C125.71,-351.81 121.63,-342.3 117.88,-333.55"/>
<polygon fill="grey" stroke="grey" stroke-width="2" points="120.99,-331.92 113.83,-324.1 114.55,-334.67 120.99,-331.92"/>
</g>
<!-- 6 -->
<g id="node7" class="node">
<title>6</title>
<path fill="none" stroke="#56d8c1" stroke-width="2" d="M102,-468C102,-468 17,-468 17,-468 11,-468 5,-462 5,-456 5,-456 5,-444 5,-444 5,-438 11,-432 17,-432 17,-432 102,-432 102,-432 108,-432 114,-438 114,-444 114,-444 114,-456 114,-456 114,-462 108,-468 102,-468"/>
<text text-anchor="middle" x="59.5" y="-447.5" font-family="sans" font-size="10.00">observe_subtensor</text>
</g>
<!-- 6&#45;&gt;3 -->
<g id="edge5" class="edge">
<title>6&#45;&gt;3</title>
<path fill="none" stroke="grey" stroke-width="2" d="M53.91,-431.92C45.03,-402.35 29.74,-339.81 40.5,-288 42.38,-278.96 45.87,-269.58 49.59,-261.26"/>
<polygon fill="grey" stroke="grey" stroke-width="2" points="52.82,-262.61 53.96,-252.07 46.5,-259.6 52.82,-262.61"/>
</g>
<!-- 6&#45;&gt;4 -->
<g id="edge7" class="edge">
<title>6&#45;&gt;4</title>
<path fill="none" stroke="grey" stroke-width="2" d="M61.72,-431.88C64.41,-413.67 69.71,-384.21 78.5,-360 81.8,-350.9 86.4,-341.42 90.92,-333.03"/>
<polygon fill="grey" stroke="grey" stroke-width="2" points="94.08,-334.55 95.91,-324.11 87.97,-331.13 94.08,-334.55"/>
</g>
<!-- 6&#45;&gt;5 -->
<g id="edge9" class="edge">
<title>6&#45;&gt;5</title>
<path fill="none" stroke="grey" stroke-width="2" d="M78.53,-431.7C88.04,-423.05 99.71,-412.45 110.07,-403.03"/>
<polygon fill="grey" stroke="grey" stroke-width="2" points="112.64,-405.42 117.69,-396.1 107.93,-400.24 112.64,-405.42"/>
</g>
<!-- 7 -->
<g id="node8" class="node">
<title>7</title>
<path fill="none" stroke="#88d856" stroke-width="2" d="M188,-108C188,-108 147,-108 147,-108 141,-108 135,-102 135,-96 135,-96 135,-84 135,-84 135,-78 141,-72 147,-72 147,-72 188,-72 188,-72 194,-72 200,-78 200,-84 200,-84 200,-96 200,-96 200,-102 194,-108 188,-108"/>
<text text-anchor="middle" x="167.5" y="-87.5" font-family="sans" font-size="10.00">meta_dag</text>
</g>
<!-- 7&#45;&gt;0 -->
<g id="edge2" class="edge">
<title>7&#45;&gt;0</title>
<path fill="none" stroke="grey" stroke-width="2" d="M154.65,-71.7C148.47,-63.39 140.96,-53.28 134.18,-44.14"/>
<polygon fill="grey" stroke="grey" stroke-width="2" points="136.98,-42.04 128.21,-36.1 131.36,-46.22 136.98,-42.04"/>
</g>
</g>
</svg>
