<?xml version="1.0" encoding="UTF-8" standalone="no"?>
<!DOCTYPE svg PUBLIC "-//W3C//DTD SVG 1.1//EN"
 "http://www.w3.org/Graphics/SVG/1.1/DTD/svg11.dtd">
<!-- Generated by graphviz version 2.43.0 (0)
 -->
<!-- Title: snakemake_dag Pages: 1 -->
<svg width="253pt" height="332pt"
 viewBox="0.00 0.00 252.50 332.00" xmlns="http://www.w3.org/2000/svg" xmlns:xlink="http://www.w3.org/1999/xlink">
<g id="graph0" class="graph" transform="scale(1 1) rotate(0) translate(4 328)">
<title>snakemake_dag</title>
<polygon fill="white" stroke="transparent" points="-4,4 -4,-328 248.5,-328 248.5,4 -4,4"/>
<!-- 0 -->
<g id="node1" class="node">
<title>0</title>
<path fill="none" stroke="#afd856" stroke-width="2" d="M90,-36C90,-36 60,-36 60,-36 54,-36 48,-30 48,-24 48,-24 48,-12 48,-12 48,-6 54,0 60,0 60,0 90,0 90,0 96,0 102,-6 102,-12 102,-12 102,-24 102,-24 102,-30 96,-36 90,-36"/>
<text text-anchor="middle" x="75" y="-15.5" font-family="sans" font-size="10.00">all</text>
</g>
<!-- 1 -->
<g id="node2" class="node">
<title>1</title>
<path fill="none" stroke="#59d856" stroke-width="2" d="M111.5,-180C111.5,-180 38.5,-180 38.5,-180 32.5,-180 26.5,-174 26.5,-168 26.5,-168 26.5,-156 26.5,-156 26.5,-150 32.5,-144 38.5,-144 38.5,-144 111.5,-144 111.5,-144 117.5,-144 123.5,-150 123.5,-156 123.5,-156 123.5,-168 123.5,-168 123.5,-174 117.5,-180 111.5,-180"/>
<text text-anchor="middle" x="75" y="-159.5" font-family="sans" font-size="10.00">build_dataframe</text>
</g>
<!-- 1&#45;&gt;0 -->
<g id="edge3" class="edge">
<title>1&#45;&gt;0</title>
<path fill="none" stroke="grey" stroke-width="2" d="M43.42,-143.78C30.55,-134.93 17.06,-122.86 10,-108 3.14,-93.55 3.14,-86.45 10,-72 16.33,-58.66 27.85,-47.58 39.44,-39.05"/>
<polygon fill="grey" stroke="grey" stroke-width="2" points="41.56,-41.84 47.83,-33.3 37.6,-36.07 41.56,-41.84"/>
</g>
<!-- 4 -->
<g id="node5" class="node">
<title>4</title>
<path fill="none" stroke="#56d8a9" stroke-width="2" d="M119,-108C119,-108 31,-108 31,-108 25,-108 19,-102 19,-96 19,-96 19,-84 19,-84 19,-78 25,-72 31,-72 31,-72 119,-72 119,-72 125,-72 131,-78 131,-84 131,-84 131,-96 131,-96 131,-102 125,-108 119,-108"/>
<text text-anchor="middle" x="75" y="-87.5" font-family="sans" font-size="10.00">generate_rulegraph</text>
</g>
<!-- 1&#45;&gt;4 -->
<g id="edge6" class="edge">
<title>1&#45;&gt;4</title>
<path fill="none" stroke="grey" stroke-width="2" d="M75,-143.7C75,-135.98 75,-126.71 75,-118.11"/>
<polygon fill="grey" stroke="grey" stroke-width="2" points="78.5,-118.1 75,-108.1 71.5,-118.1 78.5,-118.1"/>
</g>
<!-- 5 -->
<g id="node6" class="node">
<title>5</title>
<path fill="none" stroke="#56a9d8" stroke-width="2" d="M232.5,-108C232.5,-108 161.5,-108 161.5,-108 155.5,-108 149.5,-102 149.5,-96 149.5,-96 149.5,-84 149.5,-84 149.5,-78 155.5,-72 161.5,-72 161.5,-72 232.5,-72 232.5,-72 238.5,-72 244.5,-78 244.5,-84 244.5,-84 244.5,-96 244.5,-96 244.5,-102 238.5,-108 232.5,-108"/>
<text text-anchor="middle" x="197" y="-87.5" font-family="sans" font-size="10.00">generate_report</text>
</g>
<!-- 1&#45;&gt;5 -->
<g id="edge7" class="edge">
<title>1&#45;&gt;5</title>
<path fill="none" stroke="grey" stroke-width="2" d="M104.84,-143.88C120.94,-134.64 141,-123.13 158.29,-113.21"/>
<polygon fill="grey" stroke="grey" stroke-width="2" points="160.11,-116.2 167.04,-108.19 156.63,-110.13 160.11,-116.2"/>
</g>
<!-- 2 -->
<g id="node3" class="node">
<title>2</title>
<path fill="none" stroke="#d85656" stroke-width="2" d="M124.5,-252C124.5,-252 25.5,-252 25.5,-252 19.5,-252 13.5,-246 13.5,-240 13.5,-240 13.5,-228 13.5,-228 13.5,-222 19.5,-216 25.5,-216 25.5,-216 124.5,-216 124.5,-216 130.5,-216 136.5,-222 136.5,-228 136.5,-228 136.5,-240 136.5,-240 136.5,-246 130.5,-252 124.5,-252"/>
<text text-anchor="middle" x="75" y="-231.5" font-family="sans" font-size="10.00">reconstruct_multiplex</text>
</g>
<!-- 2&#45;&gt;1 -->
<g id="edge4" class="edge">
<title>2&#45;&gt;1</title>
<path fill="none" stroke="grey" stroke-width="2" d="M75,-215.7C75,-207.98 75,-198.71 75,-190.11"/>
<polygon fill="grey" stroke="grey" stroke-width="2" points="78.5,-190.1 75,-180.1 71.5,-190.1 78.5,-190.1"/>
</g>
<!-- 3 -->
<g id="node4" class="node">
<title>3</title>
<path fill="none" stroke="#d8ac56" stroke-width="2" d="M138,-324C138,-324 12,-324 12,-324 6,-324 0,-318 0,-312 0,-312 0,-300 0,-300 0,-294 6,-288 12,-288 12,-288 138,-288 138,-288 144,-288 150,-294 150,-300 150,-300 150,-312 150,-312 150,-318 144,-324 138,-324"/>
<text text-anchor="middle" x="75" y="-303.5" font-family="sans" font-size="10.00">train_reconstruction_model</text>
</g>
<!-- 3&#45;&gt;2 -->
<g id="edge5" class="edge">
<title>3&#45;&gt;2</title>
<path fill="none" stroke="grey" stroke-width="2" d="M75,-287.7C75,-279.98 75,-270.71 75,-262.11"/>
<polygon fill="grey" stroke="grey" stroke-width="2" points="78.5,-262.1 75,-252.1 71.5,-262.1 78.5,-262.1"/>
</g>
<!-- 4&#45;&gt;0 -->
<g id="edge1" class="edge">
<title>4&#45;&gt;0</title>
<path fill="none" stroke="grey" stroke-width="2" d="M75,-71.7C75,-63.98 75,-54.71 75,-46.11"/>
<polygon fill="grey" stroke="grey" stroke-width="2" points="78.5,-46.1 75,-36.1 71.5,-46.1 78.5,-46.1"/>
</g>
<!-- 5&#45;&gt;0 -->
<g id="edge2" class="edge">
<title>5&#45;&gt;0</title>
<path fill="none" stroke="grey" stroke-width="2" d="M167.16,-71.88C150.22,-62.16 128.89,-49.92 111.03,-39.67"/>
<polygon fill="grey" stroke="grey" stroke-width="2" points="112.45,-36.46 102.04,-34.51 108.97,-42.53 112.45,-36.46"/>
</g>
</g>
</svg>
